<?xml version="1.0" encoding="UTF-8"?>
<svg id="Layer_1" xmlns="http://www.w3.org/2000/svg" width="15.40495in" height="11.13266in" version="1.1" viewBox="0 0 1109.15604 801.55148">
  
  <g id="Baby">
    <path d="M772.32443,413.82193c8.26777,7.00834.37341,25.57006-9.85479,28.95676-8.12433,1.25291-13.57228,5.578-15.30833,12.7627-3.86513,4.72382-2.03619,11.59573-2.08903,17.88379-2.77063.51381-5.74194,1.32717-8.09571-1.39589l-11.82484-5.01702c3.7523-9.62436,11.45011-16.45725,19.37445-22.46023-9.79062-8.505-15.98909-19.94494-15.15073-32.19925,4.14036-5.48803,4.43073-10.79282,1.44591-16.44759-2.47927-9.42607.29688-18.464,9.26314-22.13,2.13796,7.24607,11.48467.1253,18.67713,3.87735,3.94693,2.05897,8.19579,13.40646-1.87505,25.37817-8.75018,10.40178-22.32937,5.58299-20.51729,3.60727l-1.93964,2.1148c-.46562.50766-1.06205,2.83719-.3866,2.69318l4.28914-.91448c6.64379,5.41787,12.98897,10.78738,21.30116,11.23384,6.32484.62893,12.12796-2.54564,12.69107-7.9434Z" fill="#d1bfdd"/>
    <path d="M662.65037,601.5593l4.44684.04474c-.59155-.24072-1.11182-.63873-1.4671-1.19092-1.82971-2.84363-6.03351-9.37683-7.45215-11.58191-.31323-.48694-.75531-.87256-1.2757-1.1264-18.20697-8.88068-32.56671-24.33423-25.81061-43.94989.09644-.28003,2.77393-9.82605,8.12976-3.87512,3.59869,3.99854,9.81744,14.06201,9.58722,8.28656-16.19513-12.95483-12.18341-34.57965,5.83276-38.65027,3.92908-.88776,7.79944,1.65259,8.78668,5.5578.73547,2.90955,1.72314,5.79974,4.35199,8.11066.95703,1.09125,2.6322-.31006,1.74554-1.45782-16.10529-19.19812,9.24072-25.63562,23.4671-18.77966,3.71246,1.47919,21.01007,9.92499,28.47089,31.11609,10.20673,2.00781,23.76312-4.5061,33.3811-7.11292.00043-.00012.00085-.00031.00128-.00043,13.52777-6.48315,26.29767-14.01825,37.88519-24.36401,2.66986-2.38373,5.53345-4.55634,8.58075-6.43573,3.04706-1.87921,6.29901-3.08771,9.48785-4.60358-.00024-.00061-.00055-.00122-.00079-.00183-.88837-2.30182-2.36151-4.40656-3.32141-6.69806-1.01758-2.42932-1.77155-4.99377-1.8949-7.6377-.1496-3.20563.70081-6.41638,2.27838-9.19983,1.42291-2.51062,3.34113-4.1723,5.46106-5.90393.36584-.29877.17377-.88947-.29718-.92517-10.9599-.83069-7.29858-7.2793-4.19849-10.38568.28918-.28979-.02148-.76056-.40692-.62274-1.49884.53577-3.02881.98444-4.57971,1.34271-2.20264-6.24823,4.67816-11.00171,5.11249-11.138.00159-.00049.00696-.00385.00836-.00421-5.03131,1.53229-8.35992,3.50671-11.64655,6.25684-1.74786,1.46259-3.36456,3.07788-4.87384,4.78424-.77393.875-1.51941,1.77502-2.2406,2.69397-.57538.73309-1.34332,2.38483-2.12109,2.84955-13.28143,7.93542-27.97406,13.68091-43.00616,16.46851-2.77081.51385-4.18884.06744-8.09595-1.39581,0,0-11.82465-5.01697-11.82477-5.01715,3.7525-9.62433,11.45013-16.45721,19.37439-22.46014-9.78772-8.50256-15.98547-19.93848-15.14404-32.20801,4.13318-5.48376,4.42255-10.78485,1.43884-16.44104-2.47821-9.4248.29779-18.46118,9.26324-22.12946-.90613-3.07361.69031-8.18695,2.58185-10.94751-7.63232,4.86975-14.88165,2.60791-21.24457-3.47754-2.33759-2.23566-5.2348-3.81067-8.41138-5.58179-7.84833-4.37561-21.35919-4.5932-33.08807-3.33362-1.32245-2.28619-4.37787-3.49182-10.55157-3.422-18.18652.20587-32.73846,15.28571-32.66675,33.47333.00439,1.10669.67395,8.82251.7652,9.30481l-2.34692-1.20514c-.17255-.08856-.354-.16254-.53998-.21765-17.24542-5.11212-34.95319,4.19623-39.37164,22.25555-3.01373,12.3186.789,24.8432,8.87744,34.18579,8.23413,9.51086,21.0578,14.55725,33.51801,11.80939,4.50287-.99304,8.90247-4.56696,13.18591-7.53186-1.38879,8.14178-7.01495,13.81537-13.06293,18.12976-2.58325,41.06818-48.64514,60.7854-45.02209,115.06635-38.9129,7.71747-41.38403-49.16467-41.38416-49.16711,0,0-7.37451-10.17566-7.37482-10.1756l-1.96521,14.22894c-4.04993,29.32239,18.79565,67.7771,54.21497,66.16608,0,0,2.51868,8.75201,2.91852,10.14093.34088-.13708.67902-.28082,1.02094-.41541,19.85706-7.81665,41.20361-11.44946,62.51349-11.49994ZM803.94321,452.32395c1.05939-1.06268,1.51123-.59979-.06549.09399.02545-.02997.0368-.06525.06549-.09399ZM682.72867,375.49185c1.01379-3.47162,4.47845-9.1983,9.37604-5.77631.00519.0036.00568.01178.00073.01575-6.10437,4.9325-7.87549,10.34888-7.54388,17.68427,0,.00012-.00018.00024-.00031.00012-3.10968-2.9375-3.10004-7.58392-1.83258-11.92383ZM642.50394,436.42508c-6.77155,6.10571-16.69086,4.47797-23.03778-1.24573-6.50659-5.86755-8.86456-16.93005-2.20001-23.75397,6.71881-6.87933,17.91986-2.91736,23.90002,4.24585.00006,0,0,.00006,0,.00006-4.06171,6.23114-4.64307,13.87842,1.33832,20.74414-.00018.00366-.00031.00598-.00055.00964Z" fill="#a780b1"/>
    <path d="M834.42613,449.46968l-1.6125-.74887c-.2543-1.05239-14.95393-11.60641-23.93653-8.28849-8.60307,2.26444-14.66954,8.82526-20.17536,16.60267-13.28134,7.93549-28.59718,13.60248-43.62945,16.39019.05283-6.28807-1.77611-13.15997,2.08903-17.88379,20.50361-.18583,37.35393-12.01539,49.08766-28.24185,8.64989-11.96186,25.91733-15.70628,35.48028-5.89313,8.59382,8.81867,8.4896,18.68765,2.69688,28.06327Z" fill="#2e3678"/>
    <path d="M551.32241,533.11431l-7.37476-10.17591-1.96527,14.22926c-8.26643.29148-16.17705-3.31951-21.24252-9.3089-12.88725-15.23782-.65034-28.1004-8.42157-44.26837,19.17038,1.97428,36.84036,5.55507,43.15686,24.04803,3.07234,8.99497,1.70243,18.21608-4.15274,25.47589Z" fill="#2e3678"/>
    <path d="M760.86451,370.0005l-.49169,6.23351c2.49167,4.22191,4.3456,9.56673,5.54375,14.22774-6.12528,8.95562-1.41768,16.72671,6.40785,23.36017-.56311,5.39776-6.36622,8.57233-12.69107,7.9434-8.31219-.44646-14.65738-5.81597-21.30116-11.23384l-4.28914.91448c-.67545.14401-.07901-2.18552.3866-2.69318l1.93964-2.1148c-1.81208,1.97572,11.7671,6.79451,20.51729-3.60727,10.07084-11.97171,5.82198-23.31919,1.87505-25.37817-7.19246-3.75206-16.53917,3.36872-18.67713-3.87735-.90683-3.07346.68942-8.1876,2.58112-10.9488,2.72588-3.97882,7.95472-5.90143,12.11522-3.74428,3.68598,1.91112,6.41476,6.72067,6.08365,10.91839ZM767.7528,416.93357c-5.38839-7.08017-13.14701-3.87406-20.42892-2.0418,5.77155,4.15749,14.52419,7.64657,20.42892,2.0418Z" fill="#2e3678"/>
    <path d="M765.91658,390.46175c-1.19815-4.66101-3.05209-10.00583-5.54375-14.22774l.49169-6.23351c7.48258,3.43797,10.4037,12.01562,9.13031,20.38638l-4.07824.07487Z" fill="#d1bfdd"/>
    <path d="M642.50912,436.42064c-6.77191,6.11105-16.6946,4.48391-23.04306-1.24117-6.50652-5.86762-8.86448-16.93025-2.19992-23.75402,6.71883-6.87933,17.91991-2.9175,23.9001,4.24573-4.0629,6.2327-4.64342,13.88244,1.34288,20.74946Z" fill="#2e3678"/>
    <path d="M692.11576,369.723c-6.11288,4.9349-7.8861,10.3533-7.55416,17.69318-3.11016-2.93767-3.10046-7.58434-1.83303-11.92421,1.01466-3.47433,4.48361-9.20688,9.38719-5.76897Z" fill="#2e3678"/>
    <path d="M836.3693,453.80112c-1.05414-1.27313-2.5188-2.13623-4.01129-2.84656-2.73682-1.30255-5.67828-2.16907-8.68091-2.578-1.53204-.20868-3.08038-.2984-4.62628-.26617-1.34131.02802-2.73236.36377-4.0611.28888,1.85681-2.79333,5.43304-3.68878,8.62561-3.27722,1.755.22626,3.44122.79626,5.06207,1.49011.83618.35797,3.77039,1.22186,4.1438,2.11993-.77985-1.87561-1.92902-3.58752-3.38916-5.00134-3.18024-3.07922-7.59534-4.55884-11.96381-4.69904-2.27478-.073-4.56128.20636-6.75513.8103-.64886.17865-1.2287.32703-1.7608.53424-.43433.13629-7.31512,4.88977-5.11249,11.138,1.5509-.35828,3.08087-.80695,4.57971-1.34271.38544-.13782.69611.33295.40692.62274-3.1001,3.10638-6.76141,9.55499,4.19849,10.38568.47095.03571.66302.6264.29718.92517-2.11993,1.73163-4.03815,3.39331-5.46106,5.90393-1.57758,2.78345-2.42798,5.9942-2.27838,9.19983.12335,2.64392.87732,5.20837,1.8949,7.6377.9599,2.2915,2.43304,4.39624,3.32141,6.69806.78149-.22186,6.65637-2.16699,7.28754-2.42908,1.89575-.78711,3.74738-1.69098,5.49969-2.76227,3.87848-2.37115,7.43341-5.68896,8.99097-10.06213.57971-1.62756.86438-3.3858.61108-5.09479-.16138-1.08911-.53729-2.13818-1.01849-3.12842-2.70917-5.57544-8.08221-7.19916-13.83801-7.80273,3.56842-1.80109,7.63416-2.1275,11.22198-.10852,3.83582,2.15851,5.78406,6.43048,6.03571,10.69031-.03607-.6106.86914-1.9101,1.09711-2.51776.3006-.80121.58032-1.61945.78845-2.44983.49481-1.97406.85913-4.07159.83313-6.11084-.02716-2.13232-.57886-4.32489-1.93884-5.96747Z" fill="#d1bfdd"/>
    <path d="M716.96989,398.14645l-.14172.1062c-5.74341,2.72748-13.40576-1.04712-14.98096-7.03186-.2088-.77405.18011-.92035,1.06464-1.10181.74316-.18341,1.33545-.23975,1.8855-.49719.56018-.24817.67114-1.78967.12146-2.27045-.68463-.50671-1.71869-.43274-2.56329-.81586-1.04797-.39673-1.28558-.78748-1.01483-1.69324.11096-.82172.72064-2.29932.60339-3.06061-6.45862,4.15955-6.04932,13.68701-2.19531,19.59277.01392.0213.02557.0448.03955.06592.21417.29675.21985.52789.10632.71906.33936.3363.72278.64264,1.17084.91516,3.63495,2.21124,8.21375.27844,10.03632-.49091,1.70868-.72125,4.29523-1.81311,6.05457-4.63635.01221-.01953.02124-.03931.03326-.0589-.07373.08789-.1488.18158-.21973.25806Z" fill="#fff"/>
    <path d="M719.97391,387.6575c-4.77887-4.87024-10.03888-9.18866-15.08252-10.88934-.71533-.23511-1.32672.29865-1.92242.71979-2.01263,1.42303-3.40381,2.72614-4.73987,4.15027-1.47809,1.57556-2.68921,3.56854-3.13007,5.83258-1.63629,6.78278,3.07434,10.07587,1.62225,15.70294-.02441.64081.9577.14923,1.15735.05817.54022-.34705,1.71387-.56372,2.01599-1.07251.11353-.19116.10785-.4223-.10632-.71906-.01398-.02112-.02563-.04462-.03955-.06592-3.854-5.90576-4.26331-15.43323,2.19531-19.59277.11725.76129-.49243,2.23889-.60339,3.06061-.27075.90576-.03314,1.29651,1.01483,1.69324.8446.38312,1.87866.30914,2.56329.81586.54968.48077.43872,2.02228-.12146,2.27045-.55005.25745-1.14233.31378-1.8855.49719-.88452.18146-1.27344.32776-1.06464,1.10181,1.5752,5.98474,9.23755,9.75934,14.98096,7.03186l.14172-.1062c.07092-.07648.146-.17017.21973-.25806,1.90894-2.27612,4.64142-8.22858,2.7843-10.2309Z" fill="#2e3678"/>
    <path d="M767.7528,416.93357c-5.90473,5.60477-14.65737,2.11569-20.42892-2.0418,7.28191-1.83226,15.04053-5.03837,20.42892,2.0418Z" fill="#fff"/>
  </g>
  <g id="Mommy">
    <path d="M842.04451,275.7196l.26597,6.37053c-4.57725-.47654-9.04169-3.44331-9.87143-8.71754,3.59518,2.74599,6.39844,3.55915,9.60546,2.34701Z" fill="#2e3678"/>
    <path d="M807.23066,329.88151c12.21061,7.46928,33.0831-2.43071,36.70778,9.82034.94254,3.18569-.94145,7.25609-2.77449,9.55873-4.93115,6.19446-12.09682-2.18115-21.76347,14.70472,3.84632,15.52739,16.15602,26.44577,31.31652,26.91605,15.37531.47695,29.02444-9.15298,34.05882-24.11038l1.43433-4.26147c.31245-.92831-2.33027-1.50149-4.06221-2.07025,1.81364-2.17352,4.80591-2.81589,7.83966-2.22132,2.0973.41104,3.96152,2.96394,4.18588,5.51377l-4.10901-.93207c-.98669-.22382-1.99065,2.86259-2.22943,3.57524-7.28812,22.39116-31.04296,33.93435-51.65673,23.35808-1.80519-2.82441-5.15893-.54172-7.60716-.76958l.43867-4.24855c-5.81394-5.79238-9.52721-12.77849-12.39731-20.35886-3.22679-2.76208-6.85063-5.80211-9.34886-8.98188-3.41931-4.35213-6.34815-9.20005-7.24823-14.78183-.40135-5.61888,2.41345-9.63171,7.21524-10.71074Z" fill="#2e3678"/>
    <path d="M828.57115,388.96337c-13.16445-6.32968-22.81786-19.33204-21.3075-33.58929,2.49824,3.17978,6.12208,6.2198,9.34886,8.98188,2.8701,7.58037,6.58337,14.56648,12.39731,20.35886l-.43867,4.24855Z" fill="#d1bfdd"/>
    <path d="M844.54698,236.05673l-2.78181,10.8818c-1.29833-1.13948-2.52969-4.32449-2.22245-6.46153.27739-1.92941,2.77995-4.36185,5.00426-4.42026Z" fill="#2e3678"/>
    <path d="M894.07432,342.75089c-2.63745-1.71564-5.08063-3.65393-7.3255-5.78455-5.29218-4.73553-10.05383-10.64069-13.00281-19.02484-1.42169-.16425-1.73523-.20044-3.15692-.36475-3.66034,5.62238-20.92688,25.76947-26.65063,22.12506.9425,3.18573-.94147,7.2561-2.77454,9.55878-4.93115,6.19446-12.0968-2.18115-21.76343,14.70471,3.84631,15.5274,16.15601,26.44574,31.31653,26.91602,15.37531.47699,29.02441-9.15295,34.05878-24.11035l1.43433-4.26147c.3125-.92828-2.33026-1.50153-4.06219-2.07025,1.81366-2.17352,4.80591-2.81592,7.83966-2.22131,2.09729.41101,3.96155,2.96393,4.18591,5.51379l-4.10901-.93207c-.98669-.22382-1.99066,2.86255-2.22943,3.5752-7.28815,22.39117-31.04297,33.93439-51.65674,23.35809-2.02032,12.93842,6.28406,24.04156,18.56976,29.01758,9.28326,3.76001,18.38239,3.4397,27.06982.74707,9.203-2.85236,17.1759-8.61725,23.07104-16.17712,23.51526-41.53613,6.56293-48.13245-10.81464-60.56958Z" fill="#d1bfdd"/>
    <path d="M754.84611,526.9498c-.00043.00012-.00098.00031-.0014.00043-9.61798,2.60681-23.17438,9.12073-33.3811,7.11292.00977.02771.01807.05725.02777.08502,1.12567,3.21289,2.03308,6.70758,2.62476,10.52563.00122.00195.00293.00378.00336.00604.16876.93298.35614,1.85419.54706,2.77283,7.35638,29.47076,61.75262,51.19055,60.79254,52.08569-.00598.0058-.0119.01154-.01788.01733,1.17896-1.09546,2.35699-2.18188,3.53149-3.24884.23505-.2135.46741-.4184.70215-.63098,1.17902-1.06757,2.35712-2.13116,3.52625-3.16876,18.08844-16.05377,34.74615-28.64917,41.96082-37.66998-26.88776-.13708-62.45282-6.69611-80.3158-27.88733Z" fill="#2e3678"/>
    <path d="M1080.59897,251.90653c42.96429-65.86511-33.78766-130.57587-89.88727-52.40112l-.19934-.84155,5.00745-13.89099c-17.5874-16.10413-41.20886-21.72748-64.15338-18.34717-28.69781-77.06775-112.88531-20.0639-71.00195,43.28906-46.41156,52.58209,15.2572,80.7962-53.25244,120.13104,11.45422,6.87988,31.83514.0946,36.82642,9.85602,5.72375,3.64441,22.9903-16.50269,26.65063-22.12506,1.42169.16431,10.25781,15.62524,16.15973,19.38959,2.68561,1.71289,4.85303,4.01495,7.3255,5.78455,17.37756,12.43713,34.3299,19.03345,10.81464,60.56958-.39117.69092-.78052,1.38031-1.19427,2.09082-5.01343,8.60858,66.88171-20.54083,84.93353-32.71661,11.81329-7.69836,20.60785-16.97809,26.84149-25.14355-20.35553,31.79382-32.46875,37.07019-87.05927,57.54163-13.09088,4.90906,17.67273,54.65442-3.92725,60.21808-58.71124,15.12256-82.09546,73.46368-89.32129,89.52631-7.21466,9.02081-23.87238,21.61621-41.96082,37.66998-1.16913,1.0376-2.34723,2.1012-3.52625,3.16876-.23474.21259-.4671.41748-.70215.63098-1.20239,1.09229-2.40845,2.20404-3.61542,3.32605-1.13904,1.05884-2.27814,2.1521-3.4173,3.23718-5.87329,5.59448-11.72455,11.51733-17.29175,17.81567-1.23047,1.39203-2.43958,2.80884-3.63977,4.23438-1.31403,1.56067-2.60657,3.14197-3.87811,4.74188.27002.17706.54242.35022.81152.52875,11.16089,7.40411,21.38428,16.32434,30.97461,26.90985,55.57355-62.49017,148.84985-74.0426,217.69025-30.9939,4.58453,2.86688,12.22955,7.58551,18.97797,12.15509,1.28674.87128,2.54449,1.73773,3.73828,2.58429,51.71082-69.03723,79.83307-152.97791,79.83307-240.06903,0-51.71033-9.59778-101.65417-28.55707-148.87054Z" fill="#a780b1"/>
    <path d="M785.4412,599.5557c.00598-.0058.0119-.01154.01788-.01733.96008-.89514-53.43616-22.61493-60.79254-52.08569-.2287-.91626-.41437-1.83972-.54907-2.77057-.00043-.00281-.00092-.00549-.00134-.0083-.5968-3.85101-1.51331-7.375-2.65253-10.61066-7.46082-21.1911-24.75842-29.6369-28.47089-31.11609-14.22638-6.85596-39.57239-.41846-23.4671,18.77966.88666,1.14777-.78851,2.54907-1.74554,1.45782-2.62885-2.31091-3.61652-5.20111-4.35199-8.11066-.98724-3.90521-4.8576-6.44556-8.78668-5.5578-18.01617,4.07062-22.02789,25.69543-5.83276,38.65027.23022,5.77545-5.98853-4.28802-9.58722-8.28656-5.35583-5.95093-8.03333,3.59509-8.12976,3.87512-6.7561,19.61566,7.60364,35.06921,25.81061,43.94989.52039.25385.96246.63947,1.2757,1.1264,1.41864,2.20508,5.62244,8.73828,7.45215,11.58191.35529.55219.87555.9502,1.4671,1.19092l.9903.00995c1.49847.01508,2.99451.05988,4.48914.11963,29.91272,1.19543,58.97437,11.2641,84.10907,27.64197.52319-.19696.99994-.53094,1.3642-1.0058.96637-1.25964,1.95496-2.39392,2.95856-3.44965,1.2002-1.42554,2.4093-2.84235,3.63977-4.23438,5.5672-6.29834,11.41846-12.22119,17.29175-17.81567,1.13916-1.08508,2.27826-2.17834,3.4173-3.23718,1.20697-1.12201,2.41302-2.23376,3.61542-3.32605-1.1745,1.06696-2.35254,2.15338-3.53149,3.24884Z" fill="#d1bfdd"/>
    <path d="M1060.192,200.54771c-14.55351-17.40975-40.36356.10909-45.58356,18.21404.70039-2.42922-6.56178,7.96772,21.31091,33.16766.00311.00195,1.64856.26038,1.82489.28937,19.3874-6.61061,34.66908-33.16509,22.44776-51.67108Z" fill="#2e3678"/>
    <path d="M907.95594,161.43869c1.56704,1.83726,4.41817,12.2727,2.12727,11.94543,0,0-29.29085,17.34542-36.72599,22.21176-18.58299-23.35721,10.26728-62.6843,34.59872-34.15719Z" fill="#2e3678"/>
    <g>
      <path d="M889.19761,282.08554c-.2337.21661-.53009.36914-.85333.48907-.59906,2.41571-2.05414,8.73077-1.73914,11.87482.53833-6.0672,5.14606-11.40839,11.64264-11.14435,3.19159.30243,6.38092,1.02423,5.94452,8.00604-.26685,4.26984,6.98181-.65454,6.67529,9.25317-.1109,3.5835-1.93469,7.20587-4.71863,9.06323l-.15094.10126c-1.25781.79785-2.50635,1.33044-3.72931,1.64221,3.53595-.30737,7.0899-1.2923,9.73462-2.30548,10.69812-4.36731,15.75073-15.42072,15.76538-19.52759.02905-.0777.04895-.14294.07367-.21472-2.36456-1.75165-23.33734-19.28693-38.64478-7.23767Z" fill="#fff"/>
      <path d="M904.1923,291.31113c.4364-6.98181-2.75293-7.70361-5.94452-8.00604-6.49658-.26404-11.10431,5.07715-11.64264,11.14435-.1438,1.62097-.01379,3.29059.46808,4.92279,1.73492,7.79999,8.01025,13.83051,15.1955,11.99878,1.22296-.31177,2.4715-.84436,3.72931-1.64221l.15094-.10126c2.78394-1.85736,4.60773-5.47974,4.71863-9.06323.30652-9.90771-6.94214-4.98334-6.67529-9.25317Z" fill="#2e3678"/>
      <path d="M937.10215,283.49893c-.30524-.63672-.94849-.87708-6.31274-1.24005-.06183-.00421-.1261-.01611-.18494-.03552-13.37787-4.42065-27.15509-15.7514-41.07764-6.61566-2.59283,1.76337-9.02356,2.41943-9.08624,2.5799-1.09033,2.79272,4.96661,5.47711,7.90369,4.38702.32324-.11993.61963-.27246.85333-.48907,15.30743-12.04926,36.28021,5.48602,38.64478,7.23767.06628.04913.12439.09137.16089.11469.14148.09033,7.88483-4.02905,8.974-5.16913.19751-.20673.24847-.51196.12488-.76984Z" fill="#2e3678"/>
    </g>
    <path d="M933.57163,257.01151c-6.29346-17.13043-24.85815-25.38477-40.65546-19.15131-3.86877,1.52649-6.76019,4.55261-4.45026,9.27393,16.30988-7.22864,33.23004-2.80963,45.10571,9.87738Z" fill="#2e3678"/>
  </g>
  <path id="Cloud_Arc" d="M1025.58469,638.26181c-6.74841-4.56958-14.39343-9.28821-18.97797-12.15509-68.84039-43.04871-162.1167-31.49628-217.69025,30.9939-9.59033-10.58551-19.81372-19.50574-30.97461-26.90985-.2691-.17853-.5415-.35168-.81152-.52875-.14746-.09668-.29694-.19019-.44464-.28644-25.1347-16.37787-54.19635-26.44653-84.10907-27.64197-1.49463-.05975-2.99066-.10455-4.48914-.11963l-.9903-.00995-4.44684-.04474c-21.30988.05048-42.65643,3.68329-62.51349,11.49994-.34192.13458-.68005.27832-1.02094.41541-16.54486,6.65381-31.88647,16.25458-45.05817,29.14166-49.1889-49.57416-104.38489-70.87012-161.21265-41.34302-11.09528-17.43427-20.74396-35.79761-28.87024-55.01086-19.4873-46.07129-29.36768-95.02051-29.36768-145.48535,0-16.93555,1.1499-34.00146,3.41846-50.72412,1.00244-7.38818-4.1748-14.18994-11.56299-15.19189-7.37842-.99561-14.18945,4.17432-15.19189,11.56299-2.43115,17.9209-3.66357,36.2085-3.66357,54.35303,0,54.09863,10.59814,106.58594,31.50049,156.00391,20.18604,47.72559,49.08154,90.58398,85.88379,127.38672,36.80176,36.80176,79.66113,65.69727,127.38672,85.88379,49.41748,20.90137,101.90479,31.5,156.00342,31.5,57.61523,0,113.22949-11.96875,165.2998-35.57227,47.47162-21.52014,89.65558-51.60022,125.53265-89.46667,2.13666-2.25513,4.25848-4.52869,6.35016-6.83899,8.39923-9.27716,16.3219-18.8988,23.75873-28.82745-1.19379-.84656-2.45154-1.71301-3.73828-2.58429Z" fill="#3dc2f1"/>
  <path d="M956.63163,117.04318c-3.05566,0-6.12793-1.03174-8.65527-3.14551-31.27637-26.1626-66.31934-46.88574-104.1543-61.59277-39.1416-15.21533-80.47559-23.65527-122.85352-25.08643-47.28223-1.59717-93.63965,5.55811-137.7998,21.26416-7.02441,2.49951-14.74414-1.17041-17.24316-8.19531-2.49805-7.0249,1.1709-14.74512,8.19629-17.24316C621.48905,6.19699,671.20878-1.47684,721.8787.2341c45.4248,1.53369,89.74316,10.58594,131.72559,26.90527,40.58008,15.77441,78.16016,37.99609,111.69629,66.04834,5.71875,4.78369,6.47656,13.29785,1.69238,19.0166-2.66895,3.19189-6.50195,4.83838-10.36133,4.83887Z" fill="#3dc2f1"/>
  <g id="_x33__Moves_Ahead">
    <path d="M226.32505,169.64096v-66.36957l.00323-.12024c.27502-9.33954,7.46429-17.1618,16.79889-19.12061-16.00885-39.50592-57.76685-69.80499-110.46771-72.57867-42.39453-2.42236-80.5498,12.71875-106.5918,37.5498-13.92969,13.32373-16.35254,36.33789-2.42285,51.479,15.14111,15.74658,31.49316,17.56348,56.92969,1.21143,9.08496-6.05664,23.01465-11.50732,38.76074-11.50732,29.67627,0,39.97217,26.04248,39.97217,38.15527,0,1.81689,3.02832,43-38.76074,43h-15.74658c-17.56348,0-33.91553,17.56348-33.91553,36.33838,0,19.98584,15.74658,36.33789,33.91553,36.33789h19.38037c53.29639,0,50.87354,45.42285,50.26807,52.69043-2.42285,20.5918-26.64795,44.21191-56.93018,42.39453-16.35205-.60547-36.33789-8.47852-50.26758-19.98584-20.5918-17.56348-44.21143-13.32422-57.53564,1.81689-15.14062,16.95801-10.90137,41.78906,1.21143,53.90137,26.04248,27.25391,59.95801,43.60645,99.93018,46.02832,79.32367,5.45013,149.56567-44.7981,156.24963-112.61047-23.83838-1.89508-46.69891-20.23138-46.69891-53.64178,0-14.26593,4.19861-25.77405,10.8714-34.41901-9.26776-8.57532-20.03583-15.45978-31.99927-19.77991,10.88867-6.12506,20.7572-13.94977,28.8429-23.05975-1.07764-2.30396-1.71631-4.82446-1.79419-7.46881l-.00323-.24133Z" fill="#2e3678"/>
    <path d="M310.63151,209.94351c-6.94446,0-12.95001,5.25507-13.13763,11.6358v1.68945c-7.50647-11.63586-20.6441-14.07574-26.27356-14.07574-13.4104,0-26.06989,5.8941-34.05029,16.896-5.31006,7.32056-8.55212,16.89862-8.55212,28.52075,0,27.42999,18.02356,43.67297,38.80493,45.43774,1.25726.10675,2.52338.16742,3.79749.16742,9.94641,0,20.64331-4.87982,26.27356-14.07574v1.6886c.18762,6.38159,6.19318,11.63586,13.13763,11.63586,7.13129,0,13.13678-5.06665,13.13678-11.63586v-66.24847c0-6.56836-6.00549-11.6358-13.13678-11.6358ZM276.2869,276.94327c-5.29236,0-9.66931-1.7077-13.01154-4.50574-4.95392-4.14722-7.63257-10.69202-7.63257-17.64014,0-.5849.02411-1.16589.06183-1.7439.71234-10.92017,8.1059-20.40118,20.58228-20.40118,11.82343,0,21.39459,10.51007,21.39459,22.14508,0,11.6358-9.57117,22.14587-21.39459,22.14587Z" fill="#2e3678"/>
    <path d="M359.33756,189.48728c-4.07611,0-7.90338-1.13031-11.17108-3.05316v101.39368c.18762,6.38159,6.19312,11.63586,13.13678,11.63586,7.13208,0,13.13763-5.06665,13.13763-11.63586v-35.6571c0-13.32526,9.0083-17.64136,17.26526-17.64136,7.88257,0,16.14038,5.81793,16.14038,17.26532v36.03314c.18762,6.38159,6.19318,11.63586,13.13678,11.63586,7.13129,0,13.13684-5.06665,13.13684-11.63586v-36.97125c0-26.46204-12.19867-41.66351-35.28192-41.66351-8.25781,0-20.83173,4.50458-24.39734,15.3891v-40.92981c-3.86688,3.60236-9.20966,5.83496-15.10333,5.83496Z" fill="#2e3678"/>
    <path d="M498.866,209.19302c-25.14783,0-45.79193,17.64136-45.79193,45.22913s20.6441,45.79279,45.79193,45.79279c10.32251,0,21.39545-2.06464,30.21613-7.88257,6.38074-3.75323,8.25696-11.82343,3.37799-17.45374-3.75403-4.3161-10.51007-5.44263-16.51562-1.31335-5.44263,3.75323-9.94641,4.12848-15.20142,4.12848-9.19592,0-20.26892-4.3161-21.58228-14.45093h56.48969c4.12854,0,8.0694-3.37799,8.0694-8.0694,0-27.58856-19.89282-45.98041-44.85388-45.98041ZM479.53605,246.91562c2.25232-11.07294,9.75879-15.9519,19.51843-15.9519,9.75879,0,17.07764,5.25421,18.39178,15.9519h-37.91022Z" fill="#2e3678"/>
    <path d="M639.24552,209.94351c-6.94446,0-12.94995,5.25507-13.13757,11.6358v1.68945c-7.50653-11.63586-20.6441-14.07574-26.27362-14.07574-22.3335,0-42.60242,16.328-42.60242,45.41675s20.26892,45.60516,42.60242,45.60516c9.94641,0,20.64331-4.87982,26.27362-14.07574v1.6886c.18762,6.38159,6.19312,11.63586,13.13757,11.63586,7.13129,0,13.13684-5.06665,13.13684-11.63586v-66.24847c0-6.56836-6.00555-11.6358-13.13684-11.6358ZM604.90098,276.94327c-13.13684,0-20.64417-10.51007-20.64417-22.14587,0-11.63501,7.50732-22.14508,20.64417-22.14508,11.82343,0,21.39459,10.51007,21.39459,22.14508,0,11.6358-9.57117,22.14587-21.39459,22.14587Z" fill="#2e3678"/>
    <path d="M759.47355,182.4274c-5.23206,3.29974-11.51349,5.64551-18.32159,6.9115v33.92987c-7.50653-11.63586-20.6441-14.07574-26.27441-14.07574-22.3327,0-42.60156,16.328-42.60156,45.41675s20.26886,45.60516,42.60156,45.60516c9.9472,0,20.6441-4.87982,26.27441-14.07574v1.6886c.18762,6.38159,6.19318,11.63586,13.13757,11.63586,7.13129,0,13.13684-5.06665,13.13684-11.63586v-112.08789c-2.21936,2.49677-4.87378,4.74573-7.95282,6.6875ZM719.94498,276.94327c-13.13684,0-20.6441-10.51007-20.6441-22.14587,0-11.63501,7.50726-22.14508,20.6441-22.14508,11.82343,0,21.39459,10.51007,21.39459,22.14508,0,11.6358-9.57117,22.14587-21.39459,22.14587Z" fill="#2e3678"/>
    <path d="M338.13059,90.81857c-6.19318,0-19.14233,2.81512-25.52313,16.70325-5.81793-12.01111-15.01385-16.51562-28.90192-16.51562-9.38354,0-18.76709,5.255-22.89642,14.45093v-2.06464c0-6.56842-6.00549-11.6358-13.13678-11.6358-.58899,0-1.1676.0509-1.74011.12402-6.17688.7887-11.22498,5.67224-11.39667,11.51178v66.24847c.18762,6.38159,6.19318,11.6358,13.13678,11.6358,7.13129,0,13.13678-5.06659,13.13678-11.6358v-35.65717c0-13.3252,7.3197-17.82898,15.20227-17.82898,7.50653,0,14.45013,5.81793,14.45013,16.89008v36.59607c.18762,6.38159,6.19318,11.6358,13.13763,11.6358,7.13129,0,13.13678-5.06659,13.13678-11.6358v-35.65717c0-12.76233,6.56842-17.82898,14.82623-17.82898,7.69495,0,14.63855,6.00555,14.63855,17.45294v36.0332c.06268,2.13232.78601,4.13208,1.96576,5.8587,2.35101,3.4408,6.54755,5.7771,11.17108,5.7771,7.13208,0,13.13757-5.06659,13.13757-11.6358v-39.03595c-.18762-26.46124-13.51282-39.78644-34.34454-39.78644Z" fill="#2e3678"/>
    <path d="M437.41105,182.02805c25.52313,0,46.16724-18.20502,46.16724-45.79279s-20.6441-45.22906-46.16724-45.22906-45.98041,17.64136-45.98041,45.22906,20.45648,45.79279,45.98041,45.79279ZM437.41105,116.34244c10.88452,0,19.89282,8.0694,19.89282,19.89282,0,12.01111-9.0083,20.45654-19.89282,20.45654-10.69769,0-19.70599-8.44543-19.70599-20.45654,0-11.82343,9.0083-19.89282,19.70599-19.89282Z" fill="#2e3678"/>
    <path d="M521.30009,170.20462c2.81512,6.94366,8.07019,11.07214,15.01385,11.07214h1.12653c7.13123,0,11.82343-4.12848,14.45013-11.07214l26.64966-62.30756c2.25226-6.00555-1.31335-13.88812-7.69415-15.57672-8.25781-2.06464-14.26331,1.6886-16.328,7.50653l-17.82892,47.29376-17.82898-47.29376c-2.25146-5.81793-8.0694-9.57117-16.32721-7.50653-6.3808,1.6886-9.94641,9.57117-7.69495,15.57672l26.46204,62.30756Z" fill="#2e3678"/>
    <path d="M635.59281,182.02805c10.32245,0,21.39539-2.06464,30.21606-7.88251,6.3808-3.7533,8.25702-11.82349,3.37805-17.45374-3.75409-4.31616-10.51013-5.44269-16.51562-1.31335-5.44269,3.75323-9.94641,4.12848-15.20148,4.12848-9.19592,0-20.26886-4.3161-21.58221-14.45099h56.48969c4.12848,0,8.0694-3.37799,8.0694-8.06934,0-27.58856-19.89282-45.98041-44.85388-45.98041-25.14789,0-45.79199,17.64136-45.79199,45.22906s20.6441,45.79279,45.79199,45.79279ZM635.78123,112.77683c9.75879,0,17.0777,5.25427,18.39185,15.95197h-37.91022c2.25226-11.07294,9.75879-15.95197,19.51837-15.95197Z" fill="#2e3678"/>
    <path d="M743.31711,128.54117l-13.3252-4.50458c-5.25427-1.6886-7.50653-3.37799-7.50653-6.19312,0-3.37805,3.94086-5.25507,9.57117-5.25507,3.37799,0,6.75604,1.12653,10.51007,3.94165,5.44189,4.12854,10.88452,5.44269,16.70245,2.0639,3.94086-2.25153,5.44269-7.69415,2.25226-13.32446-6.00549-10.50928-18.95471-14.45093-31.52942-14.45093-18.39185,0-33.96857,12.01105-33.96857,24.96021,0,8.07019-.18762,20.45648,26.08679,29.27716l9.94641,3.56567c6.3808,2.06464,8.63306,3.37878,8.63306,7.13208,0,4.50372-5.44269,5.44263-11.26056,5.44263-6.19318,0-11.82343-2.6275-16.51483-7.69495-2.81512-3.37799-8.25781-5.81787-14.07568-3.19037-4.31616,1.87701-6.56842,7.69495-4.6922,13.13678,4.50458,12.95001,21.01935,18.76788,35.09509,18.76788,1.23041,0,2.4657-.0426,3.70001-.12183,2.76587-.17755,5.52563-.55322,8.21051-1.13318,9.83319-2.12421,18.64655-6.974,23.04358-14.69391,1.40741-2.47101,2.36591-5.23285,2.75427-8.29822.12909-1.01886.20184-2.06769.20184-3.15295,0-5.63031-2.6275-19.33081-23.83453-26.27441Z" fill="#2e3678"/>
  </g>
  
</svg>